<?xml version="1.0" encoding="UTF-8"?>
<!DOCTYPE svg PUBLIC "-//W3C//DTD SVG 1.1//EN" "http://www.w3.org/Graphics/SVG/1.1/DTD/svg11.dtd">
<svg xmlns="http://www.w3.org/2000/svg" version="1.1" width="512px" height="512px" style="shape-rendering:geometricPrecision; text-rendering:geometricPrecision; image-rendering:optimizeQuality; fill-rule:evenodd; clip-rule:evenodd" xmlns:xlink="http://www.w3.org/1999/xlink">
<g><path style="opacity:0.957" fill="#fff" d="M 153.5,-0.5 C 166.5,-0.5 179.5,-0.5 192.5,-0.5C 235.167,0.833333 277.833,0.833333 320.5,-0.5C 334.167,-0.5 347.833,-0.5 361.5,-0.5C 370.176,0.587454 377.676,4.25412 384,10.5C 385.864,15.3236 386.698,20.3236 386.5,25.5C 376.681,81.4296 367.181,137.43 358,193.5C 355.987,209.285 354.487,225.119 353.5,241C 353.619,247.004 354.619,252.837 356.5,258.5C 358.667,258.833 360.833,259.167 363,259.5C 380.134,257.775 397.301,257.275 414.5,258C 441.154,261.491 449.654,275.658 440,300.5C 433.333,307.833 426.667,315.167 420,322.5C 373.093,380.651 326.426,438.984 280,497.5C 274.544,503.794 268.044,508.461 260.5,511.5C 256.167,511.5 251.833,511.5 247.5,511.5C 239.444,507.969 232.611,502.636 227,495.5C 199.574,460.318 171.908,425.318 144,390.5C 125.863,370.876 108.196,350.876 91,330.5C 81.2839,318.408 73.6172,305.075 68,290.5C 63.1693,275.316 68.336,265.816 83.5,262C 108.141,259.634 132.808,258.801 157.5,259.5C 146.739,182.173 136.072,104.839 125.5,27.5C 124.131,16.3919 128.464,8.55858 138.5,4C 143.577,2.32004 148.577,0.820036 153.5,-0.5 Z M 275.5,56.5 C 281.55,43.3994 287.883,30.3994 294.5,17.5C 298.364,15.8288 302.364,15.3288 306.5,16C 296.303,29.685 285.97,43.185 275.5,56.5 Z M 330.5,15.5 C 333.518,15.3354 336.518,15.502 339.5,16C 333.207,26.752 327.04,37.5854 321,48.5C 282.084,112.006 242.417,175.006 202,237.5C 180.495,273.172 159.495,309.172 139,345.5C 138.282,346.451 137.449,346.617 136.5,346C 131.805,340.773 127.472,335.273 123.5,329.5C 132.914,312.337 142.58,295.337 152.5,278.5C 158.552,277.23 164.552,275.73 170.5,274C 176.658,271.203 179.992,266.37 180.5,259.5C 179.332,251.498 178.498,243.498 178,235.5C 226.324,160.357 277.157,87.0237 330.5,15.5 Z M 163.5,16.5 C 168.214,16.1734 172.88,16.5067 177.5,17.5C 169.333,31.8333 161.167,46.1667 153,60.5C 151.232,53.5642 150.232,46.5642 150,39.5C 155.028,32.107 159.528,24.4403 163.5,16.5 Z M 223.5,16.5 C 239.17,16.3334 254.837,16.5001 270.5,17C 239.655,79.197 207.155,140.364 173,200.5C 168.302,173.947 164.635,147.28 162,120.5C 181.957,85.4079 202.457,50.7412 223.5,16.5 Z M 357.5,64.5 C 358.097,64.7352 358.43,65.2352 358.5,66C 357.789,70.5187 356.956,75.0187 356,79.5C 301.567,189.063 242.567,295.729 179,399.5C 174.333,393.5 169.667,387.5 165,381.5C 164.685,380.092 165.018,378.759 166,377.5C 230.358,273.445 294.191,169.111 357.5,64.5 Z M 339.5,193.5 C 340.097,193.735 340.43,194.235 340.5,195C 337.635,204.232 333.802,213.065 329,221.5C 288.659,290.872 245.325,358.206 199,423.5C 196.073,421.93 195.073,419.596 196,416.5C 202.333,405.167 208.667,393.833 215,382.5C 257.018,319.786 298.518,256.786 339.5,193.5 Z M 242.5,212.5 C 242.573,214.027 241.906,215.027 240.5,215.5C 240.427,213.973 241.094,212.973 242.5,212.5 Z M 240.5,215.5 C 240.25,217.674 239.25,219.341 237.5,220.5C 237.75,218.326 238.75,216.659 240.5,215.5 Z M 237.5,220.5 C 237.573,222.027 236.906,223.027 235.5,223.5C 235.427,221.973 236.094,220.973 237.5,220.5 Z M 234.5,225.5 C 234.573,227.027 233.906,228.027 232.5,228.5C 232.427,226.973 233.094,225.973 234.5,225.5 Z M 231.5,230.5 C 231.573,232.027 230.906,233.027 229.5,233.5C 229.427,231.973 230.094,230.973 231.5,230.5 Z M 228.5,235.5 C 228.573,237.027 227.906,238.027 226.5,238.5C 226.427,236.973 227.094,235.973 228.5,235.5 Z M 371.5,276.5 C 331.061,345.97 291.394,415.97 252.5,486.5C 251.998,487.521 251.332,487.688 250.5,487C 237.5,471.333 224.5,455.667 211.5,440C 254.762,382.66 294.929,323.16 332,261.5C 334.099,268.598 338.599,273.432 345.5,276C 354.16,276.5 362.827,276.666 371.5,276.5 Z M 101.5,275.5 C 110.541,275.283 119.541,275.783 128.5,277C 121.29,287.916 114.457,299.083 108,310.5C 102.011,303.86 97.011,296.527 93,288.5C 91.2459,281.098 94.0793,276.765 101.5,275.5 Z M 384.5,303.5 C 379.679,321.129 373.179,338.129 365,354.5C 356.667,367.167 348.333,379.833 340,392.5C 337.715,395.432 335.215,398.098 332.5,400.5C 349.074,367.682 366.407,335.348 384.5,303.5 Z"/></g>
</svg>
