<svg xmlns="http://www.w3.org/2000/svg" width="66.145836mm" height="66.145836mm" viewBox="0 0 66.145836 66.145836"><defs><linearGradient id="a"><stop offset="0" style="stop-color:#0cbd2a;stop-opacity:1"/><stop offset="1" style="stop-color:#5bf675;stop-opacity:1"/></linearGradient><linearGradient id="b" x1="-25.272568" x2="-25.272568" y1="207.52057" y2="152.9982" gradientTransform="matrix(.9821 0 0 .9821 -1.065 3.796)" gradientUnits="userSpaceOnUse" href="#a"/></defs><g transform="translate(59.483 -145.846)"><rect width="66.145836" height="66.145836" x="-59.483067" y="145.8456" rx="14.567832" ry="14.567832" style="opacity:1;fill:url(#b);fill-opacity:1;stroke:none;stroke-width:1.33634758;stroke-linecap:square;stroke-linejoin:miter;stroke-miterlimit:4;stroke-dasharray:none;stroke-dashoffset:0;stroke-opacity:1"/><path d="M-26.41 157.296a24.278 20.222 0 0 0-24.278 20.222 24.278 20.222 0 0 0 11.794 17.316 27.365 20.222 0 0 1-4.245 5.942 23.857 20.222 0 0 0 9.86-3.874 24.278 20.222 0 0 0 6.869.838 24.278 20.222 0 0 0 24.278-20.222 24.278 20.222 0 0 0-24.278-20.222z" style="opacity:1;fill:#fff;fill-opacity:1;stroke:none;stroke-width:1.56409621;stroke-linecap:square;stroke-linejoin:miter;stroke-miterlimit:4;stroke-dasharray:none;stroke-dashoffset:0;stroke-opacity:1"/></g></svg>